<?xml version="1.0" encoding="UTF-8" standalone="no"?>
<!-- Created with Inkscape (http://www.inkscape.org/) -->

<svg
   width="181.91805mm"
   height="175.19359mm"
   viewBox="0 0 181.91805 175.19359"
   version="1.1"
   id="svg5"
   xml:space="preserve"
   inkscape:version="1.2.2 (b0a8486541, 2022-12-01)"
   sodipodi:docname="icon.svg"
   inkscape:export-filename="icon.png"
   inkscape:export-xdpi="8.9358921"
   inkscape:export-ydpi="8.9358921"
   xmlns:inkscape="http://www.inkscape.org/namespaces/inkscape"
   xmlns:sodipodi="http://sodipodi.sourceforge.net/DTD/sodipodi-0.dtd"
   xmlns="http://www.w3.org/2000/svg"
   xmlns:svg="http://www.w3.org/2000/svg"><sodipodi:namedview
     id="namedview7"
     pagecolor="#ffffff"
     bordercolor="#000000"
     borderopacity="0.25"
     inkscape:showpageshadow="2"
     inkscape:pageopacity="0.0"
     inkscape:pagecheckerboard="0"
     inkscape:deskcolor="#d1d1d1"
     inkscape:document-units="mm"
     showgrid="false"
     inkscape:zoom="0.80169331"
     inkscape:cx="499.5676"
     inkscape:cy="409.13401"
     inkscape:window-width="1920"
     inkscape:window-height="1011"
     inkscape:window-x="0"
     inkscape:window-y="0"
     inkscape:window-maximized="1"
     inkscape:current-layer="layer1" /><defs
     id="defs2" /><g
     inkscape:label="Calque 1"
     inkscape:groupmode="layer"
     id="layer1"
     transform="translate(-8.5672125,-38.824089)"><path
       style="fill:#b50000;fill-opacity:1;stroke-width:0.352778"
       d="m 178.08926,51.868403 c 2.77427,1.037988 5.98919,3.336743 7.68072,5.491925 2.86239,3.646982 4.05833,6.998527 4.06527,11.392633 0.004,2.64674 -11.23184,75.709949 -12.04285,78.309749 -2.31009,7.40523 -9.49226,12.70447 -17.20935,12.69763 -1.6088,-0.001 -10.24126,-1.19324 -21.71935,-2.99862 -10.47714,-1.64793 -19.16313,-2.99624 -19.30219,-2.99624 -0.13907,0 -0.29811,10.12032 -0.35343,22.48959 -0.10058,22.48828 -0.10063,22.48972 -0.91697,24.78264 -2.05272,5.76573 -6.5892,10.08096 -12.38862,11.7844 -1.70651,0.50125 -6.279444,0.56028 -41.804169,0.5396 -33.693455,-0.0196 -40.183645,-0.1027 -41.79142,-0.53506 -5.643509,-1.51762 -10.631992,-6.37561 -12.38934,-12.06524 -0.681149,-2.2053 -0.700349,-3.36313 -0.700349,-42.23342 0,-38.72647 0.02149,-40.0355 0.6929,-42.20798 1.716806,-5.55508 6.239149,-10.09529 11.981654,-12.02899 2.29072,-0.77137 2.61334,-0.78209 26.924751,-0.89445 13.632882,-0.063 24.60625,-0.25061 24.60625,-0.42068 0,-1.67618 7.911359,-50.197181 8.421165,-51.647668 1.476315,-4.200385 4.920901,-8.044181 9.014375,-10.059102 2.735675,-1.346573 4.669617,-1.784245 7.931623,-1.795011 2.57072,-0.0085 26.57278,3.546217 28.89972,4.280045"
       id="path71"
       sodipodi:nodetypes="cscscssssssssssssssssc" /><path
       style="fill:#ffffff;fill-opacity:1;stroke:#fefefe;stroke-width:1.3;stroke-dasharray:none;stroke-opacity:1"
       d="m 22.306902,212.82665 c -5.64351,-1.51762 -10.63199,-6.37561 -12.3893405,-12.06524 -0.681149,-2.2053 -0.700349,-3.36313 -0.700349,-42.23342 0,-38.72647 0.0215,-40.0355 0.692899,-42.20798 1.7168105,-5.55508 6.2391505,-10.09529 11.9816505,-12.02899 2.29072,-0.77137 2.61334,-0.78209 26.924747,-0.89445 13.63289,-0.063 24.60625,-0.25061 24.60625,-0.42068 0,-1.67618 7.91136,-50.197182 8.42117,-51.647669 1.47631,-4.200385 4.9209,-8.044181 9.01437,-10.059102 2.73568,-1.346573 4.66962,-1.784245 7.93163,-1.795011 2.570711,-0.0085 26.572771,3.546217 28.899721,4.280045 1.28841,0.406312 2.52689,2.080143 2.52902,3.418011 0.003,1.874356 -1.76677,3.582209 -3.71206,3.582209 -0.47187,0 -6.37784,-0.885365 -13.12437,-1.967478 -14.218961,-2.280657 -16.220991,-2.39116 -18.968401,-1.046975 -2.37097,1.160007 -4.88774,3.9011 -5.61159,6.111757 -0.38599,1.1788 -7.97115,48.069983 -7.97115,49.277313 0,0.0686 5.27843,0.18663 11.72986,0.26217 11.060861,0.1295 11.860641,0.18267 14.022911,0.93231 5.49987,1.90676 9.6303,5.98378 11.72253,11.57093 0.7396,1.97504 0.77832,2.67701 0.89696,16.26343 0.081,9.27786 0.24795,14.19931 0.48162,14.19931 0.1967,0 9.03484,1.36071 19.6403,3.02382 10.60547,1.66309 20.12145,3.02381 21.14662,3.02381 4.17931,0 7.64332,-2.18873 9.63132,-6.08555 0.77635,-1.52175 0.77063,-1.4879 7.58978,-44.94124 2.64905,-16.88041 4.8215,-31.49523 4.82768,-32.47737 0.0159,-2.531072 -0.95311,-5.125592 -2.62274,-7.022397 -2.52389,-2.867284 -3.72988,-3.259192 -15.90301,-5.167949 -5.9683,-0.935835 -11.15922,-1.866229 -11.53538,-2.067545 -3.15941,-1.690862 -1.88641,-6.710568 1.7018,-6.710568 2.47383,0 21.98673,3.209961 23.92791,3.936251 2.77427,1.037988 5.98919,3.336743 7.68072,5.491925 2.86239,3.646982 4.05833,6.998527 4.06527,11.392633 0.004,2.64674 -11.23184,75.70994 -12.04285,78.30974 -2.31009,7.40524 -9.49226,12.70448 -17.20935,12.69764 -1.6088,-0.001 -10.24126,-1.19324 -21.71935,-2.99862 -10.47714,-1.64793 -19.16314,-2.99624 -19.3022,-2.99624 -0.13907,0 -0.29811,10.12032 -0.35343,22.48959 -0.10058,22.48828 -0.10063,22.48972 -0.91697,24.78264 -2.05272,5.76573 -6.5892,10.08096 -12.38862,11.7844 -1.70651,0.50125 -6.279431,0.56028 -41.804161,0.5396 -33.693457,-0.0196 -40.183647,-0.1027 -41.791417,-0.53506 z m 83.329708,-7.84977 c 1.71777,-0.84576 2.78053,-1.67178 3.78364,-2.9408 2.60528,-3.29594 2.47848,-0.93223 2.37319,-44.23671 l -0.0943,-38.7825 -0.98064,-1.99691 c -1.1293,-2.2996 -3.16198,-4.28072 -5.50257,-5.36297 l -1.63068,-0.75401 H 64.250539 24.915822 l -1.97079,0.92422 c -2.50507,1.17477 -4.39689,3.06659 -5.57166,5.57166 l -0.92422,1.97079 v 38.98195 c 0,44.22454 -0.22947,40.79821 2.9608,44.20887 1.83942,1.96648 3.68654,3.01743 6.00697,3.41776 0.88856,0.1533 18.764027,0.25533 39.723267,0.22674 l 38.107701,-0.052 z M 137.95397,51.839843 c -2.23574,-2.235731 -0.70289,-6.132214 2.39554,-6.089452 2.47411,0.03415 3.80056,1.408657 3.73091,3.866075 -0.084,2.962082 -3.97547,4.374363 -6.12645,2.223377 z"
       id="path71-5"
       sodipodi:nodetypes="ssssssssssssssssssssssssssssssssscscsssssssssscsscccsscsssscssscs" /><path
       d="m 35.05324,194.85643 c -4.961186,-1.24027 -8.000729,-5.11839 -8.00902,-10.21861 -0.0052,-3.16837 0.925661,-5.46334 3.033443,-7.47913 2.737475,-2.61799 7.315219,-3.65456 10.806925,-2.44707 2.246992,0.77705 4.669144,2.96947 5.780034,5.23182 1.428327,2.90882 1.433399,6.46966 0.01333,9.36149 -2.069453,4.21427 -7.190736,6.65999 -11.624724,5.55151 z m 53.071477,-0.13753 c -4.926101,-1.60602 -8.05673,-6.74497 -7.13768,-11.71657 1.017129,-5.5022 5.425611,-8.88797 11.09081,-8.51793 2.930521,0.19142 4.747331,1.00921 6.619861,2.97976 2.130562,2.24211 2.903052,4.13538 2.926972,7.17366 0.0339,4.30789 -1.977702,7.57388 -5.897993,9.5757 -1.87195,0.95587 -5.48371,1.19599 -7.60197,0.50538 z M 61.016973,168.81534 c -8.627682,-2.98151 -9.536215,-14.30216 -1.528392,-19.04437 1.420463,-0.84119 1.940136,-0.94001 4.938887,-0.93914 2.763908,7.1e-4 3.598749,0.1347 4.7625,0.76386 5.01459,2.71102 7.09049,8.96466 4.63905,13.97521 -2.32309,4.74824 -7.781909,6.98273 -12.812045,5.24444 z m 28.359865,-22.31427 c -4.79328,-0.74038 -8.44684,-5.13802 -8.4934,-10.22318 -0.0179,-1.95647 0.16781,-2.72463 1.13259,-4.68437 3.91136,-7.94511 15.144729,-7.66997 18.881502,0.46247 1.04811,2.28101 1.01856,6.29441 -0.0627,8.51982 -2.094773,4.3113 -6.651423,6.66768 -11.457963,5.92526 z m -55.329785,-0.45031 c -4.472017,-1.59807 -6.991489,-5.17674 -7.00628,-9.95175 -0.0175,-5.65175 3.917846,-9.89068 9.558257,-10.29559 3.439806,-0.24694 5.61445,0.58061 8.126231,3.09239 2.998661,2.99867 3.831421,6.51522 2.518276,10.63412 -0.803575,2.52055 -3.780607,5.57674 -6.250438,6.41665 -2.051116,0.69752 -5.155383,0.74408 -6.946046,0.10418 z"
       style="fill:#000000;fill-opacity:1;stroke:#fefefe;stroke-width:1.653;stroke-dasharray:none;stroke-opacity:1"
       id="path285-7-5"
       sodipodi:nodetypes="scssssssssssssssscssssssscsssssssss" /><path
       d="m 147.83997,137.27263 c -4.12271,-1.66533 -6.62537,-5.27721 -6.62537,-9.56185 0,-1.29264 0.25004,-3.0841 0.55566,-3.98103 0.72448,-2.12625 2.80101,-4.45331 4.95586,-5.55379 1.46039,-0.74582 2.2003,-0.87771 4.89542,-0.87257 3.83081,0.007 5.25,0.6269 7.71446,3.36796 4.57575,5.08935 3.0512,12.94295 -3.12835,16.11535 -2.38566,1.22474 -6.01668,1.43559 -8.36768,0.48593 z m -22.25414,-29.48051 c -4.31537,-1.53926 -6.94901,-5.33157 -6.94901,-10.006255 0,-4.07364 2.01892,-7.33704 5.77974,-9.342431 2.11326,-1.12685 7.15864,-1.11717 9.28933,0.0178 4.63771,2.470461 6.7209,7.605941 5.18429,12.780266 -0.7419,2.49823 -3.76988,5.61064 -6.29329,6.46877 -2.07657,0.70617 -5.15981,0.74216 -7.01106,0.0818 z M 102.3025,81.002194 c -5.507897,-2.05157 -8.259027,-7.88108 -6.357787,-13.471856 0.80405,-2.364398 3.89819,-5.458544 6.262587,-6.262597 5.00297,-1.701343 10.4951,0.504018 13.02359,5.229615 1.0977,2.051528 1.08703,7.138508 -0.0193,9.213308 -1.98409,3.72089 -4.75529,5.48522 -8.90845,5.67171 -1.70539,0.0766 -3.14049,-0.0598 -4.00062,-0.38018 z"
       style="fill:#000000;fill-opacity:1;stroke:#fefefe;stroke-width:1.653;stroke-dasharray:none;stroke-opacity:1"
       id="path313-3"
       sodipodi:nodetypes="sssscssscsscssccssssssss" /></g></svg>
